<svg width="150" height="30" viewBox="0 0 150 30" fill="none" xmlns="http://www.w3.org/2000/svg">
<rect width="150" height="30" rx="10" fill="#00A551"/>
<path d="M51.9062 16.2227H53.3711C53.3242 16.7812 53.168 17.2793 52.9023 17.7168C52.6367 18.1504 52.2637 18.4922 51.7832 18.7422C51.3027 18.9922 50.7188 19.1172 50.0312 19.1172C49.5039 19.1172 49.0293 19.0234 48.6074 18.8359C48.1855 18.6445 47.8242 18.375 47.5234 18.0273C47.2227 17.6758 46.9922 17.252 46.832 16.7559C46.6758 16.2598 46.5977 15.7051 46.5977 15.0918V14.3828C46.5977 13.7695 46.6777 13.2148 46.8379 12.7188C47.002 12.2227 47.2363 11.7988 47.541 11.4473C47.8457 11.0918 48.2109 10.8203 48.6367 10.6328C49.0664 10.4453 49.5488 10.3516 50.084 10.3516C50.7637 10.3516 51.3379 10.4766 51.8066 10.7266C52.2754 10.9766 52.6387 11.3223 52.8965 11.7637C53.1582 12.2051 53.3184 12.7109 53.377 13.2812H51.9121C51.873 12.9141 51.7871 12.5996 51.6543 12.3379C51.5254 12.0762 51.334 11.877 51.0801 11.7402C50.8262 11.5996 50.4941 11.5293 50.084 11.5293C49.748 11.5293 49.4551 11.5918 49.2051 11.7168C48.9551 11.8418 48.7461 12.0254 48.5781 12.2676C48.4102 12.5098 48.2832 12.8086 48.1973 13.1641C48.1152 13.5156 48.0742 13.918 48.0742 14.3711V15.0918C48.0742 15.5215 48.1113 15.9121 48.1855 16.2637C48.2637 16.6113 48.3809 16.9102 48.5371 17.1602C48.6973 17.4102 48.9004 17.6035 49.1465 17.7402C49.3926 17.877 49.6875 17.9453 50.0312 17.9453C50.4492 17.9453 50.7871 17.8789 51.0449 17.7461C51.3066 17.6133 51.5039 17.4199 51.6367 17.166C51.7734 16.9082 51.8633 16.5938 51.9062 16.2227ZM54.2969 15.9004V15.7656C54.2969 15.3086 54.3633 14.8848 54.4961 14.4941C54.6289 14.0996 54.8203 13.7578 55.0703 13.4688C55.3242 13.1758 55.6328 12.9492 55.9961 12.7891C56.3633 12.625 56.7773 12.543 57.2383 12.543C57.7031 12.543 58.1172 12.625 58.4805 12.7891C58.8477 12.9492 59.1582 13.1758 59.4121 13.4688C59.666 13.7578 59.8594 14.0996 59.9922 14.4941C60.125 14.8848 60.1914 15.3086 60.1914 15.7656V15.9004C60.1914 16.3574 60.125 16.7812 59.9922 17.1719C59.8594 17.5625 59.666 17.9043 59.4121 18.1973C59.1582 18.4863 58.8496 18.7129 58.4863 18.877C58.123 19.0371 57.7109 19.1172 57.25 19.1172C56.7852 19.1172 56.3691 19.0371 56.002 18.877C55.6387 18.7129 55.3301 18.4863 55.0762 18.1973C54.8223 17.9043 54.6289 17.5625 54.4961 17.1719C54.3633 16.7812 54.2969 16.3574 54.2969 15.9004ZM55.709 15.7656V15.9004C55.709 16.1855 55.7383 16.4551 55.7969 16.709C55.8555 16.9629 55.9473 17.1855 56.0723 17.377C56.1973 17.5684 56.3574 17.7188 56.5527 17.8281C56.748 17.9375 56.9805 17.9922 57.25 17.9922C57.5117 17.9922 57.7383 17.9375 57.9297 17.8281C58.125 17.7188 58.2852 17.5684 58.4102 17.377C58.5352 17.1855 58.627 16.9629 58.6855 16.709C58.748 16.4551 58.7793 16.1855 58.7793 15.9004V15.7656C58.7793 15.4844 58.748 15.2188 58.6855 14.9688C58.627 14.7148 58.5332 14.4902 58.4043 14.2949C58.2793 14.0996 58.1191 13.9473 57.9238 13.8379C57.7324 13.7246 57.5039 13.668 57.2383 13.668C56.9727 13.668 56.7422 13.7246 56.5469 13.8379C56.3555 13.9473 56.1973 14.0996 56.0723 14.2949C55.9473 14.4902 55.8555 14.7148 55.7969 14.9688C55.7383 15.2188 55.709 15.4844 55.709 15.7656ZM62.7754 14.0137V19H61.3633V12.6602H62.6934L62.7754 14.0137ZM62.5234 15.5957L62.0664 15.5898C62.0703 15.1406 62.1328 14.7285 62.2539 14.3535C62.3789 13.9785 62.5508 13.6562 62.7695 13.3867C62.9922 13.1172 63.2578 12.9102 63.5664 12.7656C63.875 12.6172 64.2188 12.543 64.5977 12.543C64.9023 12.543 65.1777 12.5859 65.4238 12.6719C65.6738 12.7539 65.8867 12.8887 66.0625 13.0762C66.2422 13.2637 66.3789 13.5078 66.4727 13.8086C66.5664 14.1055 66.6133 14.4707 66.6133 14.9043V19H65.1953V14.8984C65.1953 14.5938 65.1504 14.3535 65.0605 14.1777C64.9746 13.998 64.8477 13.8711 64.6797 13.7969C64.5156 13.7188 64.3105 13.6797 64.0645 13.6797C63.8223 13.6797 63.6055 13.7305 63.4141 13.832C63.2227 13.9336 63.0605 14.0723 62.9277 14.248C62.7988 14.4238 62.6992 14.627 62.6289 14.8574C62.5586 15.0879 62.5234 15.334 62.5234 15.5957ZM69.4551 14.0137V19H68.043V12.6602H69.373L69.4551 14.0137ZM69.2031 15.5957L68.7461 15.5898C68.75 15.1406 68.8125 14.7285 68.9336 14.3535C69.0586 13.9785 69.2305 13.6562 69.4492 13.3867C69.6719 13.1172 69.9375 12.9102 70.2461 12.7656C70.5547 12.6172 70.8984 12.543 71.2773 12.543C71.582 12.543 71.8574 12.5859 72.1035 12.6719C72.3535 12.7539 72.5664 12.8887 72.7422 13.0762C72.9219 13.2637 73.0586 13.5078 73.1523 13.8086C73.2461 14.1055 73.293 14.4707 73.293 14.9043V19H71.875V14.8984C71.875 14.5938 71.8301 14.3535 71.7402 14.1777C71.6543 13.998 71.5273 13.8711 71.3594 13.7969C71.1953 13.7188 70.9902 13.6797 70.7441 13.6797C70.502 13.6797 70.2852 13.7305 70.0938 13.832C69.9023 13.9336 69.7402 14.0723 69.6074 14.248C69.4785 14.4238 69.3789 14.627 69.3086 14.8574C69.2383 15.0879 69.2031 15.334 69.2031 15.5957ZM77.5293 19.1172C77.0605 19.1172 76.6367 19.041 76.2578 18.8887C75.8828 18.7324 75.5625 18.5156 75.2969 18.2383C75.0352 17.9609 74.834 17.6348 74.6934 17.2598C74.5527 16.8848 74.4824 16.4805 74.4824 16.0469V15.8125C74.4824 15.3164 74.5547 14.8672 74.6992 14.4648C74.8438 14.0625 75.0449 13.7188 75.3027 13.4336C75.5605 13.1445 75.8652 12.9238 76.2168 12.7715C76.5684 12.6191 76.9492 12.543 77.3594 12.543C77.8125 12.543 78.209 12.6191 78.5488 12.7715C78.8887 12.9238 79.1699 13.1387 79.3926 13.416C79.6191 13.6895 79.7871 14.0156 79.8965 14.3945C80.0098 14.7734 80.0664 15.1914 80.0664 15.6484V16.252H75.168V15.2383H78.6719V15.127C78.6641 14.873 78.6133 14.6348 78.5195 14.4121C78.4297 14.1895 78.291 14.0098 78.1035 13.873C77.916 13.7363 77.666 13.668 77.3535 13.668C77.1191 13.668 76.9102 13.7188 76.7266 13.8203C76.5469 13.918 76.3965 14.0605 76.2754 14.248C76.1543 14.4355 76.0605 14.6621 75.9941 14.9277C75.9316 15.1895 75.9004 15.4844 75.9004 15.8125V16.0469C75.9004 16.3242 75.9375 16.582 76.0117 16.8203C76.0898 17.0547 76.2031 17.2598 76.3516 17.4355C76.5 17.6113 76.6797 17.75 76.8906 17.8516C77.1016 17.9492 77.3418 17.998 77.6113 17.998C77.9512 17.998 78.2539 17.9297 78.5195 17.793C78.7852 17.6562 79.0156 17.4629 79.2109 17.2129L79.9551 17.9336C79.8184 18.1328 79.6406 18.3242 79.4219 18.5078C79.2031 18.6875 78.9355 18.834 78.6191 18.9473C78.3066 19.0605 77.9434 19.1172 77.5293 19.1172ZM82.2461 12.6602L83.4531 14.7637L84.6836 12.6602H86.2363L84.3145 15.7715L86.3125 19H84.7598L83.4707 16.8086L82.1816 19H80.623L82.6152 15.7715L80.6992 12.6602H82.2461ZM88.7148 12.6602V19H87.2969V12.6602H88.7148ZM87.2031 10.9961C87.2031 10.7812 87.2734 10.6035 87.4141 10.4629C87.5586 10.3184 87.7578 10.2461 88.0117 10.2461C88.2617 10.2461 88.459 10.3184 88.6035 10.4629C88.748 10.6035 88.8203 10.7812 88.8203 10.9961C88.8203 11.207 88.748 11.3828 88.6035 11.5234C88.459 11.6641 88.2617 11.7344 88.0117 11.7344C87.7578 11.7344 87.5586 11.6641 87.4141 11.5234C87.2734 11.3828 87.2031 11.207 87.2031 10.9961ZM89.9922 15.9004V15.7656C89.9922 15.3086 90.0586 14.8848 90.1914 14.4941C90.3242 14.0996 90.5156 13.7578 90.7656 13.4688C91.0195 13.1758 91.3281 12.9492 91.6914 12.7891C92.0586 12.625 92.4727 12.543 92.9336 12.543C93.3984 12.543 93.8125 12.625 94.1758 12.7891C94.543 12.9492 94.8535 13.1758 95.1074 13.4688C95.3613 13.7578 95.5547 14.0996 95.6875 14.4941C95.8203 14.8848 95.8867 15.3086 95.8867 15.7656V15.9004C95.8867 16.3574 95.8203 16.7812 95.6875 17.1719C95.5547 17.5625 95.3613 17.9043 95.1074 18.1973C94.8535 18.4863 94.5449 18.7129 94.1816 18.877C93.8184 19.0371 93.4062 19.1172 92.9453 19.1172C92.4805 19.1172 92.0645 19.0371 91.6973 18.877C91.334 18.7129 91.0254 18.4863 90.7715 18.1973C90.5176 17.9043 90.3242 17.5625 90.1914 17.1719C90.0586 16.7812 89.9922 16.3574 89.9922 15.9004ZM91.4043 15.7656V15.9004C91.4043 16.1855 91.4336 16.4551 91.4922 16.709C91.5508 16.9629 91.6426 17.1855 91.7676 17.377C91.8926 17.5684 92.0527 17.7188 92.248 17.8281C92.4434 17.9375 92.6758 17.9922 92.9453 17.9922C93.207 17.9922 93.4336 17.9375 93.625 17.8281C93.8203 17.7188 93.9805 17.5684 94.1055 17.377C94.2305 17.1855 94.3223 16.9629 94.3809 16.709C94.4434 16.4551 94.4746 16.1855 94.4746 15.9004V15.7656C94.4746 15.4844 94.4434 15.2188 94.3809 14.9688C94.3223 14.7148 94.2285 14.4902 94.0996 14.2949C93.9746 14.0996 93.8145 13.9473 93.6191 13.8379C93.4277 13.7246 93.1992 13.668 92.9336 13.668C92.668 13.668 92.4375 13.7246 92.2422 13.8379C92.0508 13.9473 91.8926 14.0996 91.7676 14.2949C91.6426 14.4902 91.5508 14.7148 91.4922 14.9688C91.4336 15.2188 91.4043 15.4844 91.4043 15.7656ZM98.4707 14.0137V19H97.0586V12.6602H98.3887L98.4707 14.0137ZM98.2188 15.5957L97.7617 15.5898C97.7656 15.1406 97.8281 14.7285 97.9492 14.3535C98.0742 13.9785 98.2461 13.6562 98.4648 13.3867C98.6875 13.1172 98.9531 12.9102 99.2617 12.7656C99.5703 12.6172 99.9141 12.543 100.293 12.543C100.598 12.543 100.873 12.5859 101.119 12.6719C101.369 12.7539 101.582 12.8887 101.758 13.0762C101.938 13.2637 102.074 13.5078 102.168 13.8086C102.262 14.1055 102.309 14.4707 102.309 14.9043V19H100.891V14.8984C100.891 14.5938 100.846 14.3535 100.756 14.1777C100.67 13.998 100.543 13.8711 100.375 13.7969C100.211 13.7188 100.006 13.6797 99.7598 13.6797C99.5176 13.6797 99.3008 13.7305 99.1094 13.832C98.918 13.9336 98.7559 14.0723 98.623 14.248C98.4941 14.4238 98.3945 14.627 98.3242 14.8574C98.2539 15.0879 98.2188 15.334 98.2188 15.5957Z" fill="white"/>
</svg>
